<mxfile host="app.diagrams.net" modified="2023-11-15T18:15:25.019Z" agent="Mozilla/5.0 (Windows NT 10.0; Win64; x64) AppleWebKit/537.36 (KHTML, like Gecko) Chrome/119.0.0.0 Safari/537.36" etag="WC5YP9x08jtGZrW_Fxem" version="22.1.2" type="github">
  <diagram id="C5RBs43oDa-KdzZeNtuy" name="Page-1">
    <mxGraphModel dx="635" dy="474" grid="1" gridSize="10" guides="1" tooltips="1" connect="1" arrows="1" fold="1" page="1" pageScale="1" pageWidth="827" pageHeight="1169" math="0" shadow="0">
      <root>
        <mxCell id="WIyWlLk6GJQsqaUBKTNV-0" />
        <mxCell id="WIyWlLk6GJQsqaUBKTNV-1" parent="WIyWlLk6GJQsqaUBKTNV-0" />
        <mxCell id="VLlErGUeabO-Wsx0XHVg-6" style="edgeStyle=orthogonalEdgeStyle;rounded=0;orthogonalLoop=1;jettySize=auto;html=1;exitX=0.5;exitY=1;exitDx=0;exitDy=0;entryX=0.5;entryY=0;entryDx=0;entryDy=0;" parent="WIyWlLk6GJQsqaUBKTNV-1" source="VLlErGUeabO-Wsx0XHVg-0" target="VLlErGUeabO-Wsx0XHVg-1" edge="1">
          <mxGeometry relative="1" as="geometry" />
        </mxCell>
        <mxCell id="VLlErGUeabO-Wsx0XHVg-0" value="Inicio" style="rounded=0;whiteSpace=wrap;html=1;" parent="WIyWlLk6GJQsqaUBKTNV-1" vertex="1">
          <mxGeometry x="120" y="410" width="120" height="70" as="geometry" />
        </mxCell>
        <mxCell id="VLlErGUeabO-Wsx0XHVg-7" style="edgeStyle=orthogonalEdgeStyle;rounded=0;orthogonalLoop=1;jettySize=auto;html=1;exitX=0.5;exitY=1;exitDx=0;exitDy=0;" parent="WIyWlLk6GJQsqaUBKTNV-1" source="VLlErGUeabO-Wsx0XHVg-1" target="VLlErGUeabO-Wsx0XHVg-2" edge="1">
          <mxGeometry relative="1" as="geometry" />
        </mxCell>
        <mxCell id="VLlErGUeabO-Wsx0XHVg-1" value="Solictar info&lt;br&gt;del cliente" style="rounded=0;whiteSpace=wrap;html=1;" parent="WIyWlLk6GJQsqaUBKTNV-1" vertex="1">
          <mxGeometry x="120" y="520" width="120" height="60" as="geometry" />
        </mxCell>
        <mxCell id="VLlErGUeabO-Wsx0XHVg-8" style="edgeStyle=orthogonalEdgeStyle;rounded=0;orthogonalLoop=1;jettySize=auto;html=1;exitX=0.5;exitY=1;exitDx=0;exitDy=0;" parent="WIyWlLk6GJQsqaUBKTNV-1" source="VLlErGUeabO-Wsx0XHVg-2" target="VLlErGUeabO-Wsx0XHVg-3" edge="1">
          <mxGeometry relative="1" as="geometry" />
        </mxCell>
        <mxCell id="VLlErGUeabO-Wsx0XHVg-2" value="Generar ID Único" style="rounded=0;whiteSpace=wrap;html=1;" parent="WIyWlLk6GJQsqaUBKTNV-1" vertex="1">
          <mxGeometry x="120" y="620" width="120" height="60" as="geometry" />
        </mxCell>
        <mxCell id="VLlErGUeabO-Wsx0XHVg-11" style="edgeStyle=orthogonalEdgeStyle;rounded=0;orthogonalLoop=1;jettySize=auto;html=1;exitX=0.5;exitY=1;exitDx=0;exitDy=0;entryX=0.5;entryY=0;entryDx=0;entryDy=0;" parent="WIyWlLk6GJQsqaUBKTNV-1" source="VLlErGUeabO-Wsx0XHVg-3" target="VLlErGUeabO-Wsx0XHVg-9" edge="1">
          <mxGeometry relative="1" as="geometry" />
        </mxCell>
        <mxCell id="VLlErGUeabO-Wsx0XHVg-3" value="Escribir en&lt;br&gt;&quot;clientes.txt" style="rounded=0;whiteSpace=wrap;html=1;" parent="WIyWlLk6GJQsqaUBKTNV-1" vertex="1">
          <mxGeometry x="120" y="720" width="120" height="60" as="geometry" />
        </mxCell>
        <mxCell id="VLlErGUeabO-Wsx0XHVg-14" style="edgeStyle=orthogonalEdgeStyle;rounded=0;orthogonalLoop=1;jettySize=auto;html=1;exitX=0.5;exitY=1;exitDx=0;exitDy=0;entryX=0.5;entryY=0;entryDx=0;entryDy=0;" parent="WIyWlLk6GJQsqaUBKTNV-1" source="VLlErGUeabO-Wsx0XHVg-9" target="VLlErGUeabO-Wsx0XHVg-12" edge="1">
          <mxGeometry relative="1" as="geometry" />
        </mxCell>
        <mxCell id="VLlErGUeabO-Wsx0XHVg-9" value="Imprimir mensaje&lt;br&gt;de éxito" style="rounded=0;whiteSpace=wrap;html=1;" parent="WIyWlLk6GJQsqaUBKTNV-1" vertex="1">
          <mxGeometry x="120" y="820" width="120" height="60" as="geometry" />
        </mxCell>
        <mxCell id="VLlErGUeabO-Wsx0XHVg-10" value="LOGIN" style="text;html=1;align=center;verticalAlign=middle;resizable=0;points=[];autosize=1;strokeColor=none;fillColor=none;" parent="WIyWlLk6GJQsqaUBKTNV-1" vertex="1">
          <mxGeometry x="150" y="370" width="60" height="30" as="geometry" />
        </mxCell>
        <mxCell id="VLlErGUeabO-Wsx0XHVg-15" style="edgeStyle=orthogonalEdgeStyle;rounded=0;orthogonalLoop=1;jettySize=auto;html=1;exitX=0.5;exitY=1;exitDx=0;exitDy=0;" parent="WIyWlLk6GJQsqaUBKTNV-1" source="VLlErGUeabO-Wsx0XHVg-12" target="VLlErGUeabO-Wsx0XHVg-13" edge="1">
          <mxGeometry relative="1" as="geometry" />
        </mxCell>
        <mxCell id="VLlErGUeabO-Wsx0XHVg-12" value="Añadir cliente a la lista en memoria" style="rounded=0;whiteSpace=wrap;html=1;" parent="WIyWlLk6GJQsqaUBKTNV-1" vertex="1">
          <mxGeometry x="120" y="930" width="120" height="60" as="geometry" />
        </mxCell>
        <mxCell id="VLlErGUeabO-Wsx0XHVg-13" value="Fin" style="rounded=0;whiteSpace=wrap;html=1;" parent="WIyWlLk6GJQsqaUBKTNV-1" vertex="1">
          <mxGeometry x="120" y="1040" width="120" height="60" as="geometry" />
        </mxCell>
        <mxCell id="VLlErGUeabO-Wsx0XHVg-18" value="REGISTRARCLIENTE(CLIENTES)" style="text;html=1;align=center;verticalAlign=middle;resizable=0;points=[];autosize=1;strokeColor=none;fillColor=none;" parent="WIyWlLk6GJQsqaUBKTNV-1" vertex="1">
          <mxGeometry x="285" y="370" width="210" height="30" as="geometry" />
        </mxCell>
        <mxCell id="VLlErGUeabO-Wsx0XHVg-26" style="edgeStyle=orthogonalEdgeStyle;rounded=0;orthogonalLoop=1;jettySize=auto;html=1;exitX=0.5;exitY=1;exitDx=0;exitDy=0;" parent="WIyWlLk6GJQsqaUBKTNV-1" source="VLlErGUeabO-Wsx0XHVg-19" target="VLlErGUeabO-Wsx0XHVg-22" edge="1">
          <mxGeometry relative="1" as="geometry" />
        </mxCell>
        <mxCell id="VLlErGUeabO-Wsx0XHVg-19" value="Solicitar información&lt;br&gt;del cliente" style="rounded=0;whiteSpace=wrap;html=1;" parent="WIyWlLk6GJQsqaUBKTNV-1" vertex="1">
          <mxGeometry x="330" y="410" width="120" height="70" as="geometry" />
        </mxCell>
        <mxCell id="VLlErGUeabO-Wsx0XHVg-28" style="edgeStyle=orthogonalEdgeStyle;rounded=0;orthogonalLoop=1;jettySize=auto;html=1;entryX=0.5;entryY=0;entryDx=0;entryDy=0;" parent="WIyWlLk6GJQsqaUBKTNV-1" source="VLlErGUeabO-Wsx0XHVg-22" target="VLlErGUeabO-Wsx0XHVg-23" edge="1">
          <mxGeometry relative="1" as="geometry" />
        </mxCell>
        <mxCell id="VLlErGUeabO-Wsx0XHVg-22" value="Generar ID Único" style="rounded=0;whiteSpace=wrap;html=1;" parent="WIyWlLk6GJQsqaUBKTNV-1" vertex="1">
          <mxGeometry x="330" y="520" width="120" height="60" as="geometry" />
        </mxCell>
        <mxCell id="VLlErGUeabO-Wsx0XHVg-29" style="edgeStyle=orthogonalEdgeStyle;rounded=0;orthogonalLoop=1;jettySize=auto;html=1;exitX=0.5;exitY=1;exitDx=0;exitDy=0;entryX=0.5;entryY=0;entryDx=0;entryDy=0;" parent="WIyWlLk6GJQsqaUBKTNV-1" source="VLlErGUeabO-Wsx0XHVg-23" target="VLlErGUeabO-Wsx0XHVg-24" edge="1">
          <mxGeometry relative="1" as="geometry" />
        </mxCell>
        <mxCell id="VLlErGUeabO-Wsx0XHVg-23" value="Escribir en clientes.txt" style="rounded=0;whiteSpace=wrap;html=1;" parent="WIyWlLk6GJQsqaUBKTNV-1" vertex="1">
          <mxGeometry x="330" y="620" width="120" height="60" as="geometry" />
        </mxCell>
        <mxCell id="VLlErGUeabO-Wsx0XHVg-30" style="edgeStyle=orthogonalEdgeStyle;rounded=0;orthogonalLoop=1;jettySize=auto;html=1;exitX=0.5;exitY=1;exitDx=0;exitDy=0;" parent="WIyWlLk6GJQsqaUBKTNV-1" source="VLlErGUeabO-Wsx0XHVg-24" target="VLlErGUeabO-Wsx0XHVg-25" edge="1">
          <mxGeometry relative="1" as="geometry" />
        </mxCell>
        <mxCell id="VLlErGUeabO-Wsx0XHVg-24" value="Imprimir mensaje" style="rounded=0;whiteSpace=wrap;html=1;" parent="WIyWlLk6GJQsqaUBKTNV-1" vertex="1">
          <mxGeometry x="330" y="720" width="120" height="60" as="geometry" />
        </mxCell>
        <mxCell id="VLlErGUeabO-Wsx0XHVg-33" style="edgeStyle=orthogonalEdgeStyle;rounded=0;orthogonalLoop=1;jettySize=auto;html=1;entryX=0.5;entryY=0;entryDx=0;entryDy=0;" parent="WIyWlLk6GJQsqaUBKTNV-1" source="VLlErGUeabO-Wsx0XHVg-25" target="VLlErGUeabO-Wsx0XHVg-31" edge="1">
          <mxGeometry relative="1" as="geometry" />
        </mxCell>
        <mxCell id="VLlErGUeabO-Wsx0XHVg-25" value="Añadir cliente a la lista en memoria" style="rounded=0;whiteSpace=wrap;html=1;" parent="WIyWlLk6GJQsqaUBKTNV-1" vertex="1">
          <mxGeometry x="330" y="820" width="120" height="60" as="geometry" />
        </mxCell>
        <mxCell id="VLlErGUeabO-Wsx0XHVg-34" style="edgeStyle=orthogonalEdgeStyle;rounded=0;orthogonalLoop=1;jettySize=auto;html=1;exitX=0.5;exitY=1;exitDx=0;exitDy=0;entryX=0.5;entryY=0;entryDx=0;entryDy=0;" parent="WIyWlLk6GJQsqaUBKTNV-1" source="VLlErGUeabO-Wsx0XHVg-31" target="VLlErGUeabO-Wsx0XHVg-32" edge="1">
          <mxGeometry relative="1" as="geometry" />
        </mxCell>
        <mxCell id="VLlErGUeabO-Wsx0XHVg-31" value="Leer &quot;clientes.txt&quot;" style="rounded=0;whiteSpace=wrap;html=1;" parent="WIyWlLk6GJQsqaUBKTNV-1" vertex="1">
          <mxGeometry x="330" y="930" width="120" height="60" as="geometry" />
        </mxCell>
        <mxCell id="VLlErGUeabO-Wsx0XHVg-32" value="Iterar sobre las líneas y mostrar información" style="rounded=0;whiteSpace=wrap;html=1;" parent="WIyWlLk6GJQsqaUBKTNV-1" vertex="1">
          <mxGeometry x="330" y="1040" width="120" height="60" as="geometry" />
        </mxCell>
        <mxCell id="VLlErGUeabO-Wsx0XHVg-35" value="ELIMINARCLIENTE(CLIENTES)" style="text;html=1;align=center;verticalAlign=middle;resizable=0;points=[];autosize=1;strokeColor=none;fillColor=none;" parent="WIyWlLk6GJQsqaUBKTNV-1" vertex="1">
          <mxGeometry x="515" y="370" width="200" height="30" as="geometry" />
        </mxCell>
        <mxCell id="VLlErGUeabO-Wsx0XHVg-39" style="edgeStyle=orthogonalEdgeStyle;rounded=0;orthogonalLoop=1;jettySize=auto;html=1;entryX=0.5;entryY=0;entryDx=0;entryDy=0;" parent="WIyWlLk6GJQsqaUBKTNV-1" source="VLlErGUeabO-Wsx0XHVg-36" target="VLlErGUeabO-Wsx0XHVg-37" edge="1">
          <mxGeometry relative="1" as="geometry" />
        </mxCell>
        <mxCell id="VLlErGUeabO-Wsx0XHVg-36" value="Mostrar lista de clientes" style="rounded=0;whiteSpace=wrap;html=1;" parent="WIyWlLk6GJQsqaUBKTNV-1" vertex="1">
          <mxGeometry x="555" y="410" width="120" height="70" as="geometry" />
        </mxCell>
        <mxCell id="VLlErGUeabO-Wsx0XHVg-40" style="edgeStyle=orthogonalEdgeStyle;rounded=0;orthogonalLoop=1;jettySize=auto;html=1;exitX=0.5;exitY=1;exitDx=0;exitDy=0;" parent="WIyWlLk6GJQsqaUBKTNV-1" source="VLlErGUeabO-Wsx0XHVg-37" target="VLlErGUeabO-Wsx0XHVg-38" edge="1">
          <mxGeometry relative="1" as="geometry" />
        </mxCell>
        <mxCell id="VLlErGUeabO-Wsx0XHVg-37" value="Solicitar DNI a eliminar" style="rounded=0;whiteSpace=wrap;html=1;" parent="WIyWlLk6GJQsqaUBKTNV-1" vertex="1">
          <mxGeometry x="555" y="515" width="120" height="70" as="geometry" />
        </mxCell>
        <mxCell id="VLlErGUeabO-Wsx0XHVg-38" value="Leer &quot;clientes.txt&quot; y escribir líneas sin el cliente a eliminar" style="rounded=0;whiteSpace=wrap;html=1;" parent="WIyWlLk6GJQsqaUBKTNV-1" vertex="1">
          <mxGeometry x="555" y="620" width="120" height="60" as="geometry" />
        </mxCell>
        <mxCell id="VLlErGUeabO-Wsx0XHVg-41" value="REGISTRODEARTICULO(ARTICULOS)" style="text;html=1;align=center;verticalAlign=middle;resizable=0;points=[];autosize=1;strokeColor=none;fillColor=none;" parent="WIyWlLk6GJQsqaUBKTNV-1" vertex="1">
          <mxGeometry x="730" y="370" width="240" height="30" as="geometry" />
        </mxCell>
        <mxCell id="VLlErGUeabO-Wsx0XHVg-47" style="edgeStyle=orthogonalEdgeStyle;rounded=0;orthogonalLoop=1;jettySize=auto;html=1;entryX=0.5;entryY=0;entryDx=0;entryDy=0;" parent="WIyWlLk6GJQsqaUBKTNV-1" source="VLlErGUeabO-Wsx0XHVg-44" target="VLlErGUeabO-Wsx0XHVg-45" edge="1">
          <mxGeometry relative="1" as="geometry" />
        </mxCell>
        <mxCell id="VLlErGUeabO-Wsx0XHVg-44" value="solicitar información del artículo" style="rounded=0;whiteSpace=wrap;html=1;" parent="WIyWlLk6GJQsqaUBKTNV-1" vertex="1">
          <mxGeometry x="800" y="410" width="120" height="70" as="geometry" />
        </mxCell>
        <mxCell id="VLlErGUeabO-Wsx0XHVg-48" style="edgeStyle=orthogonalEdgeStyle;rounded=0;orthogonalLoop=1;jettySize=auto;html=1;exitX=0.5;exitY=1;exitDx=0;exitDy=0;entryX=0.5;entryY=0;entryDx=0;entryDy=0;" parent="WIyWlLk6GJQsqaUBKTNV-1" source="VLlErGUeabO-Wsx0XHVg-45" target="VLlErGUeabO-Wsx0XHVg-46" edge="1">
          <mxGeometry relative="1" as="geometry" />
        </mxCell>
        <mxCell id="VLlErGUeabO-Wsx0XHVg-45" value="Generar ID único" style="rounded=0;whiteSpace=wrap;html=1;" parent="WIyWlLk6GJQsqaUBKTNV-1" vertex="1">
          <mxGeometry x="800" y="515" width="120" height="70" as="geometry" />
        </mxCell>
        <mxCell id="VLlErGUeabO-Wsx0XHVg-51" style="edgeStyle=orthogonalEdgeStyle;rounded=0;orthogonalLoop=1;jettySize=auto;html=1;exitX=0.5;exitY=1;exitDx=0;exitDy=0;" parent="WIyWlLk6GJQsqaUBKTNV-1" source="VLlErGUeabO-Wsx0XHVg-46" target="VLlErGUeabO-Wsx0XHVg-49" edge="1">
          <mxGeometry relative="1" as="geometry" />
        </mxCell>
        <mxCell id="VLlErGUeabO-Wsx0XHVg-46" value="Escribir en &quot;articulos.txt&quot;" style="rounded=0;whiteSpace=wrap;html=1;" parent="WIyWlLk6GJQsqaUBKTNV-1" vertex="1">
          <mxGeometry x="800" y="630" width="120" height="60" as="geometry" />
        </mxCell>
        <mxCell id="VLlErGUeabO-Wsx0XHVg-52" style="edgeStyle=orthogonalEdgeStyle;rounded=0;orthogonalLoop=1;jettySize=auto;html=1;exitX=0.5;exitY=1;exitDx=0;exitDy=0;entryX=0.5;entryY=0;entryDx=0;entryDy=0;" parent="WIyWlLk6GJQsqaUBKTNV-1" source="VLlErGUeabO-Wsx0XHVg-49" target="VLlErGUeabO-Wsx0XHVg-50" edge="1">
          <mxGeometry relative="1" as="geometry" />
        </mxCell>
        <mxCell id="VLlErGUeabO-Wsx0XHVg-49" value="Imprimir mensaje" style="rounded=0;whiteSpace=wrap;html=1;" parent="WIyWlLk6GJQsqaUBKTNV-1" vertex="1">
          <mxGeometry x="800" y="740" width="120" height="60" as="geometry" />
        </mxCell>
        <mxCell id="VLlErGUeabO-Wsx0XHVg-50" value="Añadir a la lista en memoria" style="rounded=0;whiteSpace=wrap;html=1;" parent="WIyWlLk6GJQsqaUBKTNV-1" vertex="1">
          <mxGeometry x="800" y="840" width="120" height="60" as="geometry" />
        </mxCell>
        <mxCell id="VLlErGUeabO-Wsx0XHVg-53" value="VERARTICULOS()" style="text;html=1;align=center;verticalAlign=middle;resizable=0;points=[];autosize=1;strokeColor=none;fillColor=none;" parent="WIyWlLk6GJQsqaUBKTNV-1" vertex="1">
          <mxGeometry x="1020" y="370" width="120" height="30" as="geometry" />
        </mxCell>
        <mxCell id="VLlErGUeabO-Wsx0XHVg-54" value="leer &quot;articulos.txt&quot;&lt;span style=&quot;white-space: pre;&quot;&gt;&#x9;&lt;/span&gt;" style="rounded=0;whiteSpace=wrap;html=1;" parent="WIyWlLk6GJQsqaUBKTNV-1" vertex="1">
          <mxGeometry x="1030" y="400" width="120" height="70" as="geometry" />
        </mxCell>
        <mxCell id="VLlErGUeabO-Wsx0XHVg-55" value="Iterar sobre las líneas y mostrar información" style="rounded=0;whiteSpace=wrap;html=1;" parent="WIyWlLk6GJQsqaUBKTNV-1" vertex="1">
          <mxGeometry x="1030" y="500" width="120" height="60" as="geometry" />
        </mxCell>
        <mxCell id="VLlErGUeabO-Wsx0XHVg-56" style="edgeStyle=orthogonalEdgeStyle;rounded=0;orthogonalLoop=1;jettySize=auto;html=1;exitX=0.5;exitY=1;exitDx=0;exitDy=0;entryX=0.45;entryY=0.05;entryDx=0;entryDy=0;entryPerimeter=0;" parent="WIyWlLk6GJQsqaUBKTNV-1" source="VLlErGUeabO-Wsx0XHVg-54" target="VLlErGUeabO-Wsx0XHVg-55" edge="1">
          <mxGeometry relative="1" as="geometry" />
        </mxCell>
        <mxCell id="VLlErGUeabO-Wsx0XHVg-57" value="ELIMINAR_ARTICULO(ARTICULOS)" style="text;html=1;align=center;verticalAlign=middle;resizable=0;points=[];autosize=1;strokeColor=none;fillColor=none;" parent="WIyWlLk6GJQsqaUBKTNV-1" vertex="1">
          <mxGeometry x="1200" y="370" width="220" height="30" as="geometry" />
        </mxCell>
        <mxCell id="VLlErGUeabO-Wsx0XHVg-60" style="edgeStyle=orthogonalEdgeStyle;rounded=0;orthogonalLoop=1;jettySize=auto;html=1;exitX=0.5;exitY=1;exitDx=0;exitDy=0;" parent="WIyWlLk6GJQsqaUBKTNV-1" source="VLlErGUeabO-Wsx0XHVg-58" target="VLlErGUeabO-Wsx0XHVg-59" edge="1">
          <mxGeometry relative="1" as="geometry" />
        </mxCell>
        <mxCell id="VLlErGUeabO-Wsx0XHVg-58" value="Mostrar lista de articulos" style="rounded=0;whiteSpace=wrap;html=1;" parent="WIyWlLk6GJQsqaUBKTNV-1" vertex="1">
          <mxGeometry x="1250" y="400" width="120" height="70" as="geometry" />
        </mxCell>
        <mxCell id="VLlErGUeabO-Wsx0XHVg-62" style="edgeStyle=orthogonalEdgeStyle;rounded=0;orthogonalLoop=1;jettySize=auto;html=1;exitX=0.5;exitY=1;exitDx=0;exitDy=0;entryX=0.5;entryY=0;entryDx=0;entryDy=0;" parent="WIyWlLk6GJQsqaUBKTNV-1" source="VLlErGUeabO-Wsx0XHVg-59" target="VLlErGUeabO-Wsx0XHVg-61" edge="1">
          <mxGeometry relative="1" as="geometry" />
        </mxCell>
        <mxCell id="VLlErGUeabO-Wsx0XHVg-59" value="Solicitar ID al eliminar" style="rounded=0;whiteSpace=wrap;html=1;" parent="WIyWlLk6GJQsqaUBKTNV-1" vertex="1">
          <mxGeometry x="1250" y="500" width="120" height="60" as="geometry" />
        </mxCell>
        <mxCell id="VLlErGUeabO-Wsx0XHVg-65" style="edgeStyle=orthogonalEdgeStyle;rounded=0;orthogonalLoop=1;jettySize=auto;html=1;exitX=0.5;exitY=1;exitDx=0;exitDy=0;" parent="WIyWlLk6GJQsqaUBKTNV-1" source="VLlErGUeabO-Wsx0XHVg-61" target="VLlErGUeabO-Wsx0XHVg-63" edge="1">
          <mxGeometry relative="1" as="geometry" />
        </mxCell>
        <mxCell id="VLlErGUeabO-Wsx0XHVg-61" value="Leer &quot;articulos.txt&quot; y escribir líneas sin el cliente a eliminar" style="rounded=0;whiteSpace=wrap;html=1;" parent="WIyWlLk6GJQsqaUBKTNV-1" vertex="1">
          <mxGeometry x="1250" y="585" width="120" height="60" as="geometry" />
        </mxCell>
        <mxCell id="VLlErGUeabO-Wsx0XHVg-68" style="edgeStyle=orthogonalEdgeStyle;rounded=0;orthogonalLoop=1;jettySize=auto;html=1;exitX=0.5;exitY=1;exitDx=0;exitDy=0;entryX=0.5;entryY=0;entryDx=0;entryDy=0;" parent="WIyWlLk6GJQsqaUBKTNV-1" source="VLlErGUeabO-Wsx0XHVg-63" target="VLlErGUeabO-Wsx0XHVg-66" edge="1">
          <mxGeometry relative="1" as="geometry" />
        </mxCell>
        <mxCell id="VLlErGUeabO-Wsx0XHVg-63" value="Actualiza lista en memoria&amp;nbsp;" style="rounded=0;whiteSpace=wrap;html=1;" parent="WIyWlLk6GJQsqaUBKTNV-1" vertex="1">
          <mxGeometry x="1250" y="680" width="120" height="60" as="geometry" />
        </mxCell>
        <mxCell id="VLlErGUeabO-Wsx0XHVg-69" style="edgeStyle=orthogonalEdgeStyle;rounded=0;orthogonalLoop=1;jettySize=auto;html=1;exitX=0.5;exitY=1;exitDx=0;exitDy=0;" parent="WIyWlLk6GJQsqaUBKTNV-1" source="VLlErGUeabO-Wsx0XHVg-66" target="VLlErGUeabO-Wsx0XHVg-67" edge="1">
          <mxGeometry relative="1" as="geometry" />
        </mxCell>
        <mxCell id="VLlErGUeabO-Wsx0XHVg-66" value="Solicitar criterio y valor de búsqueda&amp;nbsp;" style="rounded=0;whiteSpace=wrap;html=1;" parent="WIyWlLk6GJQsqaUBKTNV-1" vertex="1">
          <mxGeometry x="1250" y="770" width="120" height="60" as="geometry" />
        </mxCell>
        <mxCell id="VLlErGUeabO-Wsx0XHVg-72" style="edgeStyle=orthogonalEdgeStyle;rounded=0;orthogonalLoop=1;jettySize=auto;html=1;exitX=0.5;exitY=1;exitDx=0;exitDy=0;entryX=0.5;entryY=0;entryDx=0;entryDy=0;" parent="WIyWlLk6GJQsqaUBKTNV-1" source="VLlErGUeabO-Wsx0XHVg-67" target="VLlErGUeabO-Wsx0XHVg-70" edge="1">
          <mxGeometry relative="1" as="geometry" />
        </mxCell>
        <mxCell id="VLlErGUeabO-Wsx0XHVg-67" value="Leer articulos.txt" style="rounded=0;whiteSpace=wrap;html=1;" parent="WIyWlLk6GJQsqaUBKTNV-1" vertex="1">
          <mxGeometry x="1250" y="860" width="120" height="60" as="geometry" />
        </mxCell>
        <mxCell id="VLlErGUeabO-Wsx0XHVg-70" value="Iterar y comparar" style="rounded=0;whiteSpace=wrap;html=1;" parent="WIyWlLk6GJQsqaUBKTNV-1" vertex="1">
          <mxGeometry x="1250" y="960" width="120" height="60" as="geometry" />
        </mxCell>
        <mxCell id="VLlErGUeabO-Wsx0XHVg-73" value="REALIZARCOMPRA()" style="text;html=1;align=center;verticalAlign=middle;resizable=0;points=[];autosize=1;strokeColor=none;fillColor=none;" parent="WIyWlLk6GJQsqaUBKTNV-1" vertex="1">
          <mxGeometry x="1470" y="370" width="140" height="30" as="geometry" />
        </mxCell>
        <mxCell id="VLlErGUeabO-Wsx0XHVg-77" style="edgeStyle=orthogonalEdgeStyle;rounded=0;orthogonalLoop=1;jettySize=auto;html=1;entryX=0.5;entryY=0;entryDx=0;entryDy=0;" parent="WIyWlLk6GJQsqaUBKTNV-1" source="VLlErGUeabO-Wsx0XHVg-74" target="VLlErGUeabO-Wsx0XHVg-76" edge="1">
          <mxGeometry relative="1" as="geometry" />
        </mxCell>
        <mxCell id="VLlErGUeabO-Wsx0XHVg-74" value="Soliciar información del cliente y producto" style="rounded=0;whiteSpace=wrap;html=1;" parent="WIyWlLk6GJQsqaUBKTNV-1" vertex="1">
          <mxGeometry x="1480" y="400" width="120" height="70" as="geometry" />
        </mxCell>
        <mxCell id="VLlErGUeabO-Wsx0XHVg-82" style="edgeStyle=orthogonalEdgeStyle;rounded=0;orthogonalLoop=1;jettySize=auto;html=1;exitX=0.5;exitY=1;exitDx=0;exitDy=0;entryX=0.5;entryY=0;entryDx=0;entryDy=0;" parent="WIyWlLk6GJQsqaUBKTNV-1" source="VLlErGUeabO-Wsx0XHVg-76" target="VLlErGUeabO-Wsx0XHVg-78" edge="1">
          <mxGeometry relative="1" as="geometry" />
        </mxCell>
        <mxCell id="VLlErGUeabO-Wsx0XHVg-76" value="leer &quot;articulos.txt&quot;&lt;span style=&quot;white-space: pre;&quot;&gt;&#x9;&lt;/span&gt;" style="rounded=0;whiteSpace=wrap;html=1;" parent="WIyWlLk6GJQsqaUBKTNV-1" vertex="1">
          <mxGeometry x="1480" y="495" width="120" height="70" as="geometry" />
        </mxCell>
        <mxCell id="VLlErGUeabO-Wsx0XHVg-83" style="edgeStyle=orthogonalEdgeStyle;rounded=0;orthogonalLoop=1;jettySize=auto;html=1;exitX=0.5;exitY=1;exitDx=0;exitDy=0;entryX=0.5;entryY=0;entryDx=0;entryDy=0;" parent="WIyWlLk6GJQsqaUBKTNV-1" source="VLlErGUeabO-Wsx0XHVg-78" target="VLlErGUeabO-Wsx0XHVg-79" edge="1">
          <mxGeometry relative="1" as="geometry" />
        </mxCell>
        <mxCell id="VLlErGUeabO-Wsx0XHVg-78" value="Realizar compra" style="rounded=0;whiteSpace=wrap;html=1;" parent="WIyWlLk6GJQsqaUBKTNV-1" vertex="1">
          <mxGeometry x="1480" y="600" width="120" height="60" as="geometry" />
        </mxCell>
        <mxCell id="VLlErGUeabO-Wsx0XHVg-84" style="edgeStyle=orthogonalEdgeStyle;rounded=0;orthogonalLoop=1;jettySize=auto;html=1;entryX=0.5;entryY=0;entryDx=0;entryDy=0;" parent="WIyWlLk6GJQsqaUBKTNV-1" source="VLlErGUeabO-Wsx0XHVg-79" target="VLlErGUeabO-Wsx0XHVg-80" edge="1">
          <mxGeometry relative="1" as="geometry" />
        </mxCell>
        <mxCell id="VLlErGUeabO-Wsx0XHVg-79" value="Escribir en compra.txt" style="rounded=0;whiteSpace=wrap;html=1;" parent="WIyWlLk6GJQsqaUBKTNV-1" vertex="1">
          <mxGeometry x="1480" y="690" width="120" height="60" as="geometry" />
        </mxCell>
        <mxCell id="VLlErGUeabO-Wsx0XHVg-85" style="edgeStyle=orthogonalEdgeStyle;rounded=0;orthogonalLoop=1;jettySize=auto;html=1;exitX=0.5;exitY=1;exitDx=0;exitDy=0;entryX=0.5;entryY=0;entryDx=0;entryDy=0;" parent="WIyWlLk6GJQsqaUBKTNV-1" source="VLlErGUeabO-Wsx0XHVg-80" target="VLlErGUeabO-Wsx0XHVg-81" edge="1">
          <mxGeometry relative="1" as="geometry" />
        </mxCell>
        <mxCell id="VLlErGUeabO-Wsx0XHVg-80" value="Imprimir mensaje" style="rounded=0;whiteSpace=wrap;html=1;" parent="WIyWlLk6GJQsqaUBKTNV-1" vertex="1">
          <mxGeometry x="1480" y="790" width="120" height="60" as="geometry" />
        </mxCell>
        <mxCell id="VLlErGUeabO-Wsx0XHVg-81" value="Llamar a seguimiento de compra" style="rounded=0;whiteSpace=wrap;html=1;" parent="WIyWlLk6GJQsqaUBKTNV-1" vertex="1">
          <mxGeometry x="1480" y="880" width="120" height="60" as="geometry" />
        </mxCell>
        <mxCell id="VLlErGUeabO-Wsx0XHVg-86" value="SEGUIMIENTODECOMPRA()" style="text;html=1;align=center;verticalAlign=middle;resizable=0;points=[];autosize=1;strokeColor=none;fillColor=none;" parent="WIyWlLk6GJQsqaUBKTNV-1" vertex="1">
          <mxGeometry x="1654" y="370" width="180" height="30" as="geometry" />
        </mxCell>
        <mxCell id="VLlErGUeabO-Wsx0XHVg-87" value="Imprimir mensaje de seguimiento" style="rounded=0;whiteSpace=wrap;html=1;" parent="WIyWlLk6GJQsqaUBKTNV-1" vertex="1">
          <mxGeometry x="1700" y="400" width="120" height="70" as="geometry" />
        </mxCell>
        <mxCell id="VLlErGUeabO-Wsx0XHVg-88" value="MENU()" style="text;html=1;align=center;verticalAlign=middle;resizable=0;points=[];autosize=1;strokeColor=none;fillColor=none;" parent="WIyWlLk6GJQsqaUBKTNV-1" vertex="1">
          <mxGeometry x="1889" y="370" width="70" height="30" as="geometry" />
        </mxCell>
        <mxCell id="VLlErGUeabO-Wsx0XHVg-91" style="edgeStyle=orthogonalEdgeStyle;rounded=0;orthogonalLoop=1;jettySize=auto;html=1;exitX=0.5;exitY=1;exitDx=0;exitDy=0;" parent="WIyWlLk6GJQsqaUBKTNV-1" source="VLlErGUeabO-Wsx0XHVg-89" target="VLlErGUeabO-Wsx0XHVg-90" edge="1">
          <mxGeometry relative="1" as="geometry" />
        </mxCell>
        <mxCell id="VLlErGUeabO-Wsx0XHVg-89" value="Imprimir menú" style="rounded=0;whiteSpace=wrap;html=1;" parent="WIyWlLk6GJQsqaUBKTNV-1" vertex="1">
          <mxGeometry x="1880" y="400" width="120" height="70" as="geometry" />
        </mxCell>
        <mxCell id="VLlErGUeabO-Wsx0XHVg-90" value="Solicitar opción" style="rounded=0;whiteSpace=wrap;html=1;" parent="WIyWlLk6GJQsqaUBKTNV-1" vertex="1">
          <mxGeometry x="1880" y="505" width="120" height="60" as="geometry" />
        </mxCell>
        <mxCell id="VLlErGUeabO-Wsx0XHVg-92" value="MAIN" style="text;html=1;align=center;verticalAlign=middle;resizable=0;points=[];autosize=1;strokeColor=none;fillColor=none;" parent="WIyWlLk6GJQsqaUBKTNV-1" vertex="1">
          <mxGeometry x="2080" y="370" width="50" height="30" as="geometry" />
        </mxCell>
        <mxCell id="VLlErGUeabO-Wsx0XHVg-98" style="edgeStyle=orthogonalEdgeStyle;rounded=0;orthogonalLoop=1;jettySize=auto;html=1;exitX=0.5;exitY=1;exitDx=0;exitDy=0;" parent="WIyWlLk6GJQsqaUBKTNV-1" source="VLlErGUeabO-Wsx0XHVg-93" target="VLlErGUeabO-Wsx0XHVg-94" edge="1">
          <mxGeometry relative="1" as="geometry" />
        </mxCell>
        <mxCell id="VLlErGUeabO-Wsx0XHVg-93" value="Importar funciones de otros archivos" style="rounded=0;whiteSpace=wrap;html=1;" parent="WIyWlLk6GJQsqaUBKTNV-1" vertex="1">
          <mxGeometry x="2068" y="400" width="120" height="70" as="geometry" />
        </mxCell>
        <mxCell id="VLlErGUeabO-Wsx0XHVg-99" style="edgeStyle=orthogonalEdgeStyle;rounded=0;orthogonalLoop=1;jettySize=auto;html=1;exitX=0.5;exitY=1;exitDx=0;exitDy=0;entryX=0.5;entryY=0;entryDx=0;entryDy=0;" parent="WIyWlLk6GJQsqaUBKTNV-1" source="VLlErGUeabO-Wsx0XHVg-94" target="VLlErGUeabO-Wsx0XHVg-95" edge="1">
          <mxGeometry relative="1" as="geometry" />
        </mxCell>
        <mxCell id="VLlErGUeabO-Wsx0XHVg-94" value="Bucle de menú" style="rounded=0;whiteSpace=wrap;html=1;" parent="WIyWlLk6GJQsqaUBKTNV-1" vertex="1">
          <mxGeometry x="2068" y="505" width="120" height="60" as="geometry" />
        </mxCell>
        <mxCell id="VLlErGUeabO-Wsx0XHVg-95" value="Ejecutar acciones según la opción seleccionada" style="rounded=0;whiteSpace=wrap;html=1;" parent="WIyWlLk6GJQsqaUBKTNV-1" vertex="1">
          <mxGeometry x="2068" y="590" width="120" height="60" as="geometry" />
        </mxCell>
        <mxCell id="5eMGE5Q4XNYzfyyt1u-K-0" value="Leer &quot;clientes.txt&quot;" style="rounded=0;whiteSpace=wrap;html=1;" vertex="1" parent="WIyWlLk6GJQsqaUBKTNV-1">
          <mxGeometry x="2240" y="400" width="120" height="70" as="geometry" />
        </mxCell>
        <mxCell id="5eMGE5Q4XNYzfyyt1u-K-3" value="VERCLIENTES()" style="text;html=1;align=center;verticalAlign=middle;resizable=0;points=[];autosize=1;strokeColor=none;fillColor=none;" vertex="1" parent="WIyWlLk6GJQsqaUBKTNV-1">
          <mxGeometry x="2245" y="360" width="110" height="30" as="geometry" />
        </mxCell>
        <mxCell id="5eMGE5Q4XNYzfyyt1u-K-4" value="Iterar sobre las líneas y mostrar información" style="rounded=0;whiteSpace=wrap;html=1;" vertex="1" parent="WIyWlLk6GJQsqaUBKTNV-1">
          <mxGeometry x="2245" y="520" width="120" height="60" as="geometry" />
        </mxCell>
        <mxCell id="5eMGE5Q4XNYzfyyt1u-K-5" style="edgeStyle=orthogonalEdgeStyle;rounded=0;orthogonalLoop=1;jettySize=auto;html=1;exitX=0.5;exitY=1;exitDx=0;exitDy=0;entryX=0.456;entryY=0.022;entryDx=0;entryDy=0;entryPerimeter=0;" edge="1" parent="WIyWlLk6GJQsqaUBKTNV-1" source="5eMGE5Q4XNYzfyyt1u-K-0" target="5eMGE5Q4XNYzfyyt1u-K-4">
          <mxGeometry relative="1" as="geometry" />
        </mxCell>
        <mxCell id="5eMGE5Q4XNYzfyyt1u-K-6" value="BUSCARCLIENTES()" style="text;html=1;align=center;verticalAlign=middle;resizable=0;points=[];autosize=1;strokeColor=none;fillColor=none;" vertex="1" parent="WIyWlLk6GJQsqaUBKTNV-1">
          <mxGeometry x="2375" y="360" width="140" height="30" as="geometry" />
        </mxCell>
        <mxCell id="5eMGE5Q4XNYzfyyt1u-K-10" style="edgeStyle=orthogonalEdgeStyle;rounded=0;orthogonalLoop=1;jettySize=auto;html=1;exitX=0.5;exitY=1;exitDx=0;exitDy=0;entryX=0.5;entryY=0;entryDx=0;entryDy=0;" edge="1" parent="WIyWlLk6GJQsqaUBKTNV-1" source="5eMGE5Q4XNYzfyyt1u-K-7" target="5eMGE5Q4XNYzfyyt1u-K-8">
          <mxGeometry relative="1" as="geometry" />
        </mxCell>
        <mxCell id="5eMGE5Q4XNYzfyyt1u-K-7" value="Solicitar criterio y valor de búsqueda" style="rounded=0;whiteSpace=wrap;html=1;" vertex="1" parent="WIyWlLk6GJQsqaUBKTNV-1">
          <mxGeometry x="2395" y="410" width="120" height="70" as="geometry" />
        </mxCell>
        <mxCell id="5eMGE5Q4XNYzfyyt1u-K-11" style="edgeStyle=orthogonalEdgeStyle;rounded=0;orthogonalLoop=1;jettySize=auto;html=1;exitX=0.5;exitY=1;exitDx=0;exitDy=0;" edge="1" parent="WIyWlLk6GJQsqaUBKTNV-1" source="5eMGE5Q4XNYzfyyt1u-K-8" target="5eMGE5Q4XNYzfyyt1u-K-9">
          <mxGeometry relative="1" as="geometry" />
        </mxCell>
        <mxCell id="5eMGE5Q4XNYzfyyt1u-K-8" value="Leer &quot;clientes.txt&quot;" style="rounded=0;whiteSpace=wrap;html=1;" vertex="1" parent="WIyWlLk6GJQsqaUBKTNV-1">
          <mxGeometry x="2395" y="515" width="120" height="60" as="geometry" />
        </mxCell>
        <mxCell id="5eMGE5Q4XNYzfyyt1u-K-9" value="Iterar y comparar" style="rounded=0;whiteSpace=wrap;html=1;" vertex="1" parent="WIyWlLk6GJQsqaUBKTNV-1">
          <mxGeometry x="2395" y="610" width="120" height="60" as="geometry" />
        </mxCell>
      </root>
    </mxGraphModel>
  </diagram>
</mxfile>
